<?xml version="1.0" encoding="utf-8"?>
<svg id="master-artboard" viewBox="0 0 740.7755737304688 164.9588623046875" version="1.1" xmlns="http://www.w3.org/2000/svg" x="0px" y="0px" style="enable-background:new 0 0 1400 980;" width="740.7755737304688px" height="164.9588623046875px" xmlns:xlink="http://www.w3.org/1999/xlink"><rect id="ee-background" x="0" y="0" width="740.7755737304688" height="164.9588623046875" style="fill: rgb(255, 237, 249); fill-opacity: 0; pointer-events: none;"/><defs><style id="ee-google-fonts">@import url(https://fonts.googleapis.com/css?family=Roboto:100,100italic,300,300italic,400,400italic,500,500italic,700,700italic,900,900italic);</style></defs>























































































































<g transform="matrix(1.2760416269302368, 0, 0, 1.2760416269302368, -269.76095962524414, -403.9248001152423)"><metadata id="metadata99364">
    
  </metadata><linearGradient spreadMethod="pad" y2="30%" x2="-10%" y1="120%" x1="30%" id="3d_gradient2-logo-19d7928d-c40a-4f57-bf29-4e7509ef6bfa">
    <stop id="stop99339" stop-opacity="1" stop-color="#ffffff" offset="0%"/>
    <stop id="stop99341" stop-opacity="1" stop-color="#000000" offset="100%"/>
  </linearGradient><linearGradient gradientTransform="rotate(-30)" spreadMethod="pad" y2="30%" x2="-10%" y1="120%" x1="30%" id="3d_gradient3-logo-19d7928d-c40a-4f57-bf29-4e7509ef6bfa">
    <stop id="stop99344" stop-opacity="1" stop-color="#ffffff" offset="0%"/>
    <stop id="stop99346" stop-opacity="1" stop-color="#cccccc" offset="50%"/>
    <stop id="stop99348" stop-opacity="1" stop-color="#000000" offset="100%"/>
  </linearGradient><g id="logo-group">
    <image id="container" x="272" y="144" width="480" height="480" transform="translate(0 0)" style="display: none;" xlink:href=""/>
    <g id="logo-center" transform="translate(-1.1368683772161603e-13 0)">
      <image id="icon_container" x="0" y="0" style="display: none;" xlink:href=""/>
      <g id="slogan" style="font-style:normal;font-weight:500;font-size:32px;line-height:1;font-family:'Raleway Medium Alt1';font-variant-ligatures:none;text-align:center;text-anchor:middle" transform="translate(0 0)"/>
      <g id="title" style="font-style:normal;font-weight:normal;font-size:72px;line-height:1;font-family:'Brandmark Sans 41';font-variant-ligatures:normal;text-align:center;text-anchor:middle" transform="translate(0 0)">
        <path id="path99367" style="font-style:normal;font-weight:normal;font-size:72px;line-height:1;font-family:'Brandmark Sans 41';font-variant-ligatures:normal;text-align:center;text-anchor:middle" d="m 407.63769,-36 -36.144,21.6 -2.592,14.4 h 58.32 l 2.592,-14.4 h -32.4 l 36.144,-21.6 2.592,-14.4 h -58.32 l -2.592,14.4 z" stroke-width="0" stroke-linejoin="miter" stroke-miterlimit="2" fill="#fcfcfc" stroke="#fcfcfc" transform="translate(0 334) translate(223.66025000000008 -0.3999999999999986) scale(2) translate(-368.90169 50.4)"/>
        <path id="path99369" style="font-style:normal;font-weight:normal;font-size:72px;line-height:1;font-family:'Brandmark Sans 41';font-variant-ligatures:normal;text-align:center;text-anchor:middle" d="m 499.36119,-50.4 h -38.16 L 427.07319,0 h 20.16 l 24.336,-36 h 7.992 l -6.408,36 h 17.28 z m 0.576,25.704 17.136,24.696 h 20.88 l 8.928,-50.4 h -17.28 l -5.544,31.392 -20.088,-28.872 z" stroke-width="0" stroke-linejoin="miter" stroke-miterlimit="2" fill="#c9b5a1" stroke="#c9b5a1" transform="translate(0 334) translate(340.0032500000002 -0.3999999999999986) scale(2) translate(-427.07319 50.4)"/>
        <path id="path99371" style="font-style:normal;font-weight:normal;font-size:72px;line-height:1;font-family:'Brandmark Sans 41';font-variant-ligatures:normal;text-align:center;text-anchor:middle" d="m 585.96144,-50.4 19.44,24.48 -29.808,25.92 h 23.76 l 15.768,-13.68 10.872,13.68 h 20.88 l -19.44,-24.48 29.808,-25.92 h -23.76 l -15.768,13.68 -10.872,-13.68 z M 541.53744,0 h 27.864 l 16.56,-14.4 h -41.832 z m 3.312,-18.72 h 45.936 l 8.424,-7.2 -4.536,-5.76 h -47.52 z m 3.024,-17.28 h 43.344 l -11.448,-14.4 h -29.304 z" stroke-width="0" stroke-linejoin="miter" stroke-miterlimit="2" fill="#956e45" stroke="#956e45" transform="translate(0 334) translate(568.93175 -0.3999999999999986) scale(2) translate(-541.53744 50.4)"/>
      </g>
      <image id="icon" x="0" y="0" style="display: none;" xlink:href=""/>
    </g>
  </g></g></svg>